<?xml version="1.0" encoding="UTF-8" standalone="no"?>
<svg
   xmlns:dc="http://purl.org/dc/elements/1.1/"
   xmlns:cc="http://creativecommons.org/ns#"
   xmlns:rdf="http://www.w3.org/1999/02/22-rdf-syntax-ns#"
   xmlns:svg="http://www.w3.org/2000/svg"
   xmlns="http://www.w3.org/2000/svg"
   xmlns:sodipodi="http://sodipodi.sourceforge.net/DTD/sodipodi-0.dtd"
   xmlns:inkscape="http://www.inkscape.org/namespaces/inkscape"
   version="1.1"
   id="svg96"
   width="418.62827"
   height="255.24132"
   viewBox="0 0 418.62827 255.24132"
   sodipodi:docname="logo_ensg_vectoriel.svg"
   inkscape:version="1.0.2 (e86c870879, 2021-01-15, custom)">
  <metadata
     id="metadata102">
    <rdf:RDF>
      <cc:Work
         rdf:about="">
        <dc:format>image/svg+xml</dc:format>
        <dc:type
           rdf:resource="http://purl.org/dc/dcmitype/StillImage" />
        <dc:title></dc:title>
      </cc:Work>
    </rdf:RDF>
  </metadata>
  <defs
     id="defs100" />
  <sodipodi:namedview
     pagecolor="#ffffff"
     bordercolor="#666666"
     borderopacity="1"
     objecttolerance="10"
     gridtolerance="10"
     guidetolerance="10"
     inkscape:pageopacity="0"
     inkscape:pageshadow="2"
     inkscape:window-width="1368"
     inkscape:window-height="850"
     id="namedview98"
     showgrid="false"
     inkscape:zoom="1.2537155"
     inkscape:cx="190.60541"
     inkscape:cy="79.325338"
     inkscape:window-x="-6"
     inkscape:window-y="-6"
     inkscape:window-maximized="1"
     inkscape:current-layer="g104" />
  <g
     inkscape:groupmode="layer"
     inkscape:label="Image"
     id="g104">
    <path
       style="fill:#000000;stroke-width:0.81287"
       d="m 316.65114,218.19924 v -12.28765 l -3.23337,2.92116 c -8.06904,7.28989 -18.53243,7.17369 -25.78907,-0.28638 -3.96354,-4.07466 -5.42943,-7.81361 -5.78025,-14.7434 -0.24716,-4.88234 0.0242,-6.96577 1.27607,-9.79575 3.63526,-8.2181 10.2692,-12.85989 18.37909,-12.85989 5.21308,0 8.53972,1.36402 12.5057,5.12769 l 2.64183,2.50706 v -3.87137 c 0,-3.74374 0.0736,-3.86288 2.23539,-3.61415 l 2.23539,0.25721 0.21336,29.46655 0.21336,29.46656 h -2.44875 -2.44875 z m -7.66739,-10.50666 c 1.62009,-1.00127 4.00802,-3.28708 5.3065,-5.07959 2.14375,-2.95937 2.36077,-3.86467 2.35963,-9.84333 -0.002,-8.00734 -1.39496,-11.22196 -6.36851,-14.69221 -2.94186,-2.05264 -4.30808,-2.45933 -8.2619,-2.45933 -3.95222,0 -5.3109,0.40409 -8.1995,2.43861 -4.78567,3.37069 -7.24504,8.29379 -7.24504,14.50288 0,13.45227 12.0077,21.56123 22.40882,15.13297 z m -285.819024,5.47448 c -7.60784,-2.14381 -13.9434801,-7.82822 -17.7330901,-15.91032 -1.866794,-3.9813 -2.142051,-5.61289 -2.142051,-12.69704 0,-7.24306 0.246152,-8.62995 2.259251,-12.72928 4.8203901,-9.81587 13.4181701,-15.55383 23.3059201,-15.55383 6.20375,0 10.5734,1.19485 14.80983,4.04964 2.76476,1.86309 7.83256,8.0653 7.09546,8.68377 -2.4714,2.07364 -3.42139,1.77895 -7.53899,-2.33865 -3.34556,-3.34557 -5.11103,-4.43284 -8.52943,-5.2529 -10.36478,-2.48648 -19.77152,2.11975 -24.68243,12.08632 -2.6400301,5.35788 -2.6672901,17.63134 -0.05,22.52979 2.6506201,4.9609 5.6485101,8.20619 9.8767301,10.6918 3.21626,1.89072 4.67844,2.21706 9.87199,2.20332 6.80035,-0.018 9.4069,-1.0504 14.68022,-5.81453 3.09197,-2.79341 3.20293,-3.07342 3.20293,-8.08272 v -5.18907 h -6.09653 c -5.96105,0 -6.09653,-0.0452 -6.09653,-2.03218 V 185.779 h 8.53514 8.53514 v 7.60783 7.60782 l -3.29427,3.74249 c -6.23896,7.08783 -17.64864,10.78585 -26.00925,8.42992 z m 46.25366,-0.0185 c -4.00477,-1.49787 -7.15472,-4.07514 -9.84021,-8.05118 -7.69071,-11.38664 -3.24727,-27.756 8.91815,-32.85395 3.77081,-1.58017 12.16976,-1.36059 16.0803,0.42041 3.8111,1.73572 8.8085,6.99892 10.50839,11.06731 0.65853,1.57608 1.30698,4.60201 1.441,6.72428 l 0.24366,3.85867 -18.08636,0.21877 c -14.0729,0.17022 -18.08637,0.45048 -18.08637,1.26292 0,0.57429 0.96819,2.98705 2.15153,5.3617 5.0507,10.13544 18.12915,12.2423 25.0366,4.03326 1.88225,-2.23692 4.76646,-3.09274 5.64302,-1.67443 0.83166,1.34566 -2.75612,5.76804 -6.42274,7.91683 -4.54691,2.66467 -12.87672,3.47715 -17.58697,1.7154 z m 22.37421,-24.72773 c -1.9642,-8.17242 -7.77965,-13.20914 -15.25139,-13.20914 -6.66334,0 -11.5408,3.16559 -14.40316,9.34801 -2.93779,6.34531 -3.52238,6.09653 14.32536,6.09653 h 15.86646 z m 17.466184,23.54338 c -6.94169,-3.60627 -11.254844,-11.17342 -11.265264,-19.76416 -0.009,-7.58659 4.191294,-14.81919 10.811704,-18.61613 3.44796,-1.97748 5.15796,-2.42273 9.32843,-2.42896 6.08029,-0.009 9.44049,1.25719 13.80895,5.20384 8.64257,7.80805 9.20213,23.09389 1.15946,31.67373 -5.89368,6.28732 -16.07672,7.96648 -23.84328,3.93168 z m 17.25679,-4.59803 c 7.93972,-5.25425 9.93399,-16.97927 4.27396,-25.12815 -2.66291,-3.83384 -8.23823,-7.02634 -12.27069,-7.02634 -8.28043,0 -15.61692,8.21018 -15.61692,17.47671 0,13.23335 13.30208,21.50166 23.61365,14.67778 z m 89.00963,5.02096 c -4.34656,-2.48548 -6.33308,-5.44734 -6.76534,-10.08696 -0.75668,-8.12183 6.37578,-13.6044 17.58824,-13.51973 3.39402,0.0256 7.59221,0.44237 9.32931,0.92607 l 3.15836,0.87946 -0.45033,-4.36321 c -0.79526,-7.70538 -4.4487,-11.01108 -12.16939,-11.01108 -3.06802,0 -5.61512,0.62966 -8.63548,2.13477 -3.23652,1.61283 -4.51323,1.90547 -5.22177,1.19693 -2.74447,-2.74447 6.40503,-7.33054 14.70576,-7.37108 8.40919,-0.0411 13.46205,3.52385 15.51859,10.94878 0.4974,1.79583 0.90261,9.52894 0.90511,17.27349 l 0.005,14.02202 h -2.38711 c -2.07284,0 -2.42065,-0.3318 -2.64183,-2.52025 l -0.25472,-2.52025 -2.18251,1.72478 c -5.50068,4.34704 -15.0377,5.41057 -20.50143,2.28626 z m 16.3251,-3.91753 c 4.81642,-2.33159 6.76528,-5.30541 6.76528,-10.32332 v -4.04558 l -3.61144,-0.90938 c -8.31558,-2.09388 -18.5473,-0.19403 -20.70909,3.84531 -1.1219,2.0963 -1.12875,6.26472 -0.0137,8.34819 2.51679,4.70267 11.11004,6.21148 17.56896,3.08478 z m 25.4613,4.9025 c -4.60129,-1.90296 -4.83949,-2.9468 -4.85915,-21.29336 l -0.0181,-16.86706 h -2.84504 c -2.49281,0 -2.84505,-0.2516 -2.84505,-2.03218 0,-1.78058 0.35224,-2.03218 2.84505,-2.03218 h 2.84504 v -6.90939 -6.9094 h 2.43861 2.43862 v 6.9094 6.90939 h 4.87722 c 4.66045,0 4.87722,0.0903 4.87722,2.03218 0,1.94186 -0.21677,2.03218 -4.87722,2.03218 h -4.87722 v 16.22881 c 0,15.68823 0.0572,16.25944 1.71828,17.1484 1.7268,0.92416 5.59604,0.72818 8.23414,-0.41705 1.05334,-0.45727 1.60248,-0.12378 2.13843,1.29865 0.59425,1.57717 0.38537,2.09479 -1.18716,2.94187 -2.68367,1.44562 -8.49255,1.95692 -10.90369,0.95974 z m 78.03991,-0.56642 c -1.74304,-0.87209 -3.62759,-2.83468 -4.87722,-5.07918 -1.95404,-3.50975 -2.04769,-4.3247 -2.312,-20.11855 l -0.27547,-16.46063 h 2.44871 2.44871 l 0.26537,15.64776 c 0.22191,13.08473 0.50062,16.07822 1.70166,18.27582 1.47742,2.70336 5.08473,5.09768 7.66814,5.08967 5.61628,-0.0174 12.08792,-4.28631 14.92314,-9.84378 1.36776,-2.68103 1.57785,-4.8289 1.57785,-16.13115 v -13.03832 h 2.03218 2.03217 v 21.13464 21.13463 h -2.03217 c -1.9008,0 -2.03218,-0.2668 -2.03218,-4.12673 v -4.12671 l -2.05125,2.43777 c -4.88197,5.80188 -15.29158,8.31979 -21.51764,5.20476 z m 44.8822,-0.6716 c -7.68141,-3.82781 -11.51713,-10.29515 -11.53307,-19.44569 -0.016,-9.21918 4.80197,-17.13472 12.34437,-20.28056 3.74248,-1.56094 11.98088,-1.63661 15.55588,-0.14289 7.02238,2.93415 12.69439,11.2325 12.70953,18.59449 l 0.008,3.86114 h -17.98476 -17.98475 l 0.50972,2.54859 c 0.71752,3.58764 3.42328,7.6808 6.75942,10.2254 5.75122,4.38666 16.5723,2.98448 20.24683,-2.62357 1.33597,-2.03893 4.64612,-2.766 5.59596,-1.22913 0.26942,0.43592 -1.01098,2.42079 -2.84532,4.41082 -5.87263,6.37105 -15.43682,8.04053 -23.38176,4.0814 z m 23.94028,-24.43492 c -1.13799,-7.01266 -7.76576,-12.48748 -15.11722,-12.48748 -7.66757,0 -14.0613,5.23909 -15.23724,12.48555 l -0.48017,2.95899 h 15.65725 15.65725 z m -260.66425,4.52881 v -21.18863 l 2.23539,0.25721 c 2.04796,0.23564 2.2562,0.58171 2.48351,4.12734 l 0.24813,3.87014 2.08952,-2.48326 c 3.19069,-3.79192 7.55423,-5.66345 13.20454,-5.66345 4.26291,0 5.23265,0.30848 7.65449,2.43488 1.52523,1.33918 3.23345,3.5461 3.79603,4.90429 l 1.02287,2.46942 1.93234,-2.84372 c 3.03766,-4.47031 8.02014,-6.96487 13.91123,-6.96487 4.08853,0 5.365,0.35202 7.35816,2.02916 4.44365,3.73907 5.25249,7.25121 5.66364,24.59235 l 0.37099,15.64776 h -2.45881 -2.45882 l -0.29463,-15.24132 c -0.31531,-16.31157 -0.89758,-18.88376 -4.9111,-21.69495 -4.26102,-2.98452 -12.08969,-0.32645 -15.87706,5.39075 -2.19244,3.30958 -2.24132,3.65206 -2.49192,17.46066 l -0.25561,14.08486 h -2.38621 -2.38622 l -0.0194,-13.61558 c -0.0228,-16.01163 -0.61467,-19.30725 -4.01463,-22.35394 -5.3056,-4.75434 -13.62809,-1.5719 -17.98426,6.87701 -1.34138,2.60165 -1.55495,4.80671 -1.55495,16.0542 l 3e-5,13.03831 h -2.43861 -2.43861 z m 128.43352,0.054 v -21.13465 h 2.43862 2.43861 v 21.13464 21.13463 h -2.43861 -2.43862 z m -197.738864,-29.333 c -1.31843,-0.76774 -1.23566,-1.1165 1.05514,-4.44607 2.14786,-3.12181 2.87528,-3.61297 5.35079,-3.61297 h 2.86499 l -1.48152,1.87985 c -2.76831,3.51262 -5.84645,7.06181 -6.10305,7.037 -0.14063,-0.0136 -0.89949,-0.39961 -1.68635,-0.85781 z m 197.738864,-3.99469 c 0,-3.97404 0.0542,-4.06435 2.43862,-4.06435 2.38441,0 2.43861,0.0903 2.43861,4.06435 0,3.97403 -0.0542,4.06435 -2.43861,4.06435 -2.38442,0 -2.43862,-0.0903 -2.43862,-4.06435 z M 229.674,141.08097 c -11.06455,-2.40448 -25.29953,-8.99957 -29.54104,-13.68639 -1.45899,-1.61216 -1.42631,-1.7688 1.41634,-6.78954 1.60039,-2.82663 3.23577,-5.63937 3.63418,-6.25055 0.56984,-0.87415 1.62309,-0.40084 4.93683,2.21852 5.27613,4.17054 12.40232,7.59905 20.78384,9.99939 8.56688,2.45342 22.99943,2.64797 29.48094,0.39738 9.71242,-3.37245 14.07573,-11.02361 11.52471,-20.20882 -1.92744,-6.939943 -9.21942,-11.066057 -28.417,-16.079574 C 223.17906,85.37639 216.41072,82.685057 210.63932,77.617705 204.5483,72.269721 201.84916,62.40398 203.61417,51.9398 c 2.25191,-13.350843 11.79638,-22.827418 27.04064,-26.848298 7.0148,-1.85026 22.79002,-1.81178 29.90827,0.0729 6.54373,1.7326 17.41304,6.91927 20.90601,9.976031 l 2.61643,2.289682 -3.34798,5.690093 c -1.84139,3.129551 -3.42008,5.786569 -3.50821,5.904486 -0.0881,0.117916 -2.5506,-1.388524 -5.47216,-3.347644 -7.95061,-5.331464 -13.90432,-7.140974 -25.08585,-7.624336 -7.31062,-0.316027 -10.45917,-0.105444 -14.05563,0.940073 -9.04517,2.629506 -14.18691,9.923767 -13.26842,18.823099 0.96935,9.392103 5.70587,12.305217 29.76721,18.307817 23.48997,5.86006 32.73819,10.99745 37.61285,20.893985 1.61989,3.288712 1.87978,5.054862 1.87978,12.774992 0,8.46997 -0.14454,9.25227 -2.6497,14.34097 -6.14825,12.48887 -19.34814,18.58718 -40.026,18.49188 -5.89986,-0.0272 -11.89663,-0.59694 -16.25741,-1.5446 z m 110.14394,0.40947 c -6.48002,-1.43119 -13.00592,-3.92473 -13.00592,-4.96956 0,-0.46279 2.06705,-3.12562 4.59346,-5.91738 l 4.59347,-5.07595 6.1428,1.26883 c 10.87141,2.24555 19.55098,1.1338 29.74158,-3.80958 10.57325,-5.12899 21.08977,-18.39986 23.51347,-29.671803 l 0.74283,-3.4547 h -14.63224 c -11.68737,0 -14.55044,-0.21311 -14.22588,-1.05891 0.22348,-0.582397 1.04241,-3.325835 1.81982,-6.096528 l 1.41349,-5.037618 h 20.12652 20.12652 l 0.50485,2.011456 c 0.67372,2.684342 -0.78744,15.186834 -2.42586,20.756833 -4.79428,16.2988 -18.51975,31.36806 -34.47639,37.85183 -10.35862,4.20908 -24.19155,5.49143 -34.55252,3.20308 z M 3.6960209,82.943085 V 24.002172 l 39.2209951,0.21102 39.221,0.21102 v 6.9094 6.909402 l -31.49873,0.212763 -31.49873,0.212764 V 56.94858 75.228619 h 27.6376 27.63759 v 6.502964 6.502963 h -27.63759 -27.6376 v 19.915334 19.91532 h 32.10838 32.10839 v 6.9094 6.9094 H 43.526676 3.6960209 Z m 88.6028751,0.0081 V 24.018102 h 6.01522 6.015224 l 21.83995,27.434382 c 12.01198,15.088908 28.05196,35.245315 35.64439,44.792007 l 13.80444,17.357319 0.21016,-44.385584 0.21016,-44.385574 h 7.71532 7.71533 V 83.357324 141.884 h -6.34492 -6.34494 L 143.26134,97.478371 107.74344,53.072752 V 97.478371 141.884 h -7.72227 -7.722274 V 82.950889 Z M 313.35702,128.61991 c -6.16626,-5.09065 -11.11652,-11.40136 -14.929,-19.03184 -4.16185,-8.32972 -5.45205,-13.507621 -5.93345,-23.812356 -0.36622,-7.839383 -0.15666,-10.492949 1.28392,-16.257412 6.12678,-24.516245 25.88101,-42.21465 50.82295,-45.5338 7.62356,-1.01451 16.95837,-0.21328 24.86254,2.13401 4.74073,1.40784 4.88689,0.59718 -1.52647,8.466881 -2.0039,2.458933 -3.71003,4.578085 -3.79141,4.709227 -0.0814,0.131141 -2.95731,-0.110344 -6.39097,-0.536634 -19.43934,-2.413403 -37.50042,7.290657 -46.30688,24.880265 -8.37389,16.725616 -4.55811,38.378199 9.1077,51.681529 l 3.18986,3.10526 -2.00957,6.64918 c -1.10526,3.65706 -2.26351,6.92443 -2.57389,7.26084 -0.31037,0.3364 -2.92277,-1.33541 -5.80533,-3.71515 z m 19.0452,-24.53537 8.2286,-27.298704 18.98912,-21.145976 c 10.44402,-11.630287 19.13451,-21.000591 19.3122,-20.822895 0.1777,0.177695 -3.37607,12.543681 -7.89727,27.479969 l -8.22035,27.156889 -18.65877,20.728197 c -10.26233,11.40051 -18.95653,20.83463 -19.32045,20.96471 -0.36393,0.13008 3.04119,-12.0479 7.56692,-27.06219 z M 383.0272,35.601156 c -0.20639,-0.335309 -0.63598,-2.351664 -0.95464,-4.480784 -0.31865,-2.12912 -0.85102,-4.03901 -1.18303,-4.24421 -0.33202,-0.20519 -1.28746,0.89668 -2.12323,2.44861 -1.57173,2.91852 -2.32423,3.3968 -3.17599,2.01862 -0.58288,-0.9431 4.62229,-10.17069 5.73716,-10.17069 0.41785,0 1.34763,2.37404 2.06616,5.27564 l 1.30642,5.27564 1.74478,-3.42004 c 1.21919,-2.38983 2.11764,-3.27696 2.98259,-2.94505 1.22672,0.47074 0.66494,1.79015 -4.0148,9.429394 -0.92908,1.51662 -1.77484,1.804829 -2.38542,0.81287 z"
       id="path108" />
  </g>
</svg>
