<?xml version="1.0" encoding="UTF-8" standalone="no"?>
<svg
   xmlns:dc="http://purl.org/dc/elements/1.1/"
   xmlns:cc="http://creativecommons.org/ns#"
   xmlns:rdf="http://www.w3.org/1999/02/22-rdf-syntax-ns#"
   xmlns:svg="http://www.w3.org/2000/svg"
   xmlns="http://www.w3.org/2000/svg"
   xmlns:sodipodi="http://sodipodi.sourceforge.net/DTD/sodipodi-0.dtd"
   xmlns:inkscape="http://www.inkscape.org/namespaces/inkscape"
   version="1.1"
   id="svg78"
   width="804.74176"
   height="784.01355"
   viewBox="0 0 804.74176 784.01355"
   sodipodi:docname="logo_noir.svg"
   inkscape:version="1.0.2 (e86c870879, 2021-01-15, custom)">
  <metadata
     id="metadata84">
    <rdf:RDF>
      <cc:Work
         rdf:about="">
        <dc:format>image/svg+xml</dc:format>
        <dc:type
           rdf:resource="http://purl.org/dc/dcmitype/StillImage" />
        <dc:title></dc:title>
      </cc:Work>
    </rdf:RDF>
  </metadata>
  <defs
     id="defs82" />
  <sodipodi:namedview
     pagecolor="#ffffff"
     bordercolor="#666666"
     borderopacity="1"
     objecttolerance="10"
     gridtolerance="10"
     guidetolerance="10"
     inkscape:pageopacity="0"
     inkscape:pageshadow="2"
     inkscape:window-width="1368"
     inkscape:window-height="850"
     id="namedview80"
     showgrid="false"
     inkscape:zoom="0.81631242"
     inkscape:cx="402.37088"
     inkscape:cy="510.83383"
     inkscape:window-x="-6"
     inkscape:window-y="-6"
     inkscape:window-maximized="1"
     inkscape:current-layer="g86" />
  <g
     inkscape:groupmode="layer"
     inkscape:label="Image"
     id="g86">
    <path
       style="fill:#000000;stroke-width:0.406435"
       d="M 387.36707,676.38375 C 364.82039,674.83344 349.63803,672.70758 332.09188,668.644 286.88411,658.17415 245.30039,638.17315 208.57109,609.23276 189.45207,594.1682 170.65521,575.22007 155.32779,555.56104 120.22668,510.54017 98.034087,456.32403 91.507447,399.64903 c -1.54877,-13.44894 -1.85443,-19.58947 -1.8411,-36.9856 0.014,-18.28014 0.44049,-25.35067 2.45148,-40.64352 7.35191,-55.90849 29.517343,-108.29248 64.734083,-152.98734 14.85443,-18.85231 34.30283,-38.14577 53.67173,-53.24416 54.89549,-42.791984 122.27182,-65.876895 192.2703,-65.876895 60.38241,0 118.66892,17.051551 169.20349,49.500018 12.29507,7.894717 23.64799,16.395707 35.86076,26.852237 8.24994,7.06357 24.02796,22.7465 31.13436,30.94665 41.21769,47.56173 66.86087,104.61425 74.71576,166.23201 1.85785,14.57394 2.24238,21.40381 2.24263,39.83065 2.4e-4,18.41082 -0.37319,25.02297 -2.2495,39.83065 -7.80274,61.57884 -33.66101,119.03484 -74.9278,166.48652 -6.68724,7.68951 -22.25221,23.23826 -29.89937,29.86819 -38.04709,32.9862 -82.33678,56.0953 -130.26249,67.96731 -13.88948,3.44064 -22.80207,5.04362 -41.04996,7.38306 -7.78238,0.99772 -17.67798,1.49556 -31.90516,1.60505 -8.82981,0.068 -17.06012,0.0544 -18.28959,-0.0301 z m -34.14056,-46.44226 v -9.70754 l 6.80779,-0.16981 c 7.90288,-0.19708 9.37381,-0.63993 12.13929,-3.65479 2.84632,-3.10297 2.79721,-2.6615 2.79721,-25.14399 0,-18.8195 -0.0486,-20.21056 -0.74288,-21.27018 -1.62002,-2.47247 -3.95014,-2.71986 -13.91331,-1.47711 -7.7771,0.97008 -7.0881,0.94984 -7.0881,0.20802 0,-0.49675 -0.67739,-0.60966 -3.65791,-0.60966 h -3.65792 v 35.7663 35.7663 h 3.65792 3.65791 z m 0,-35.8132 v -19.10246 l 5.7917,-0.004 c 3.18544,-0.004 6.47757,-0.11782 7.31584,-0.25638 l 1.52413,-0.25195 v 17.11524 c 0,18.80937 -0.0839,19.53721 -2.41159,20.91223 -0.94505,0.55823 -2.22533,0.69024 -6.6943,0.69024 h -5.52578 z m -55.27519,22.55715 v -3.4547 h -9.14479 -9.14479 v -38.20491 -38.20491 h -3.86114 -3.86113 v 41.65961 41.65961 h 13.00592 13.00593 z m 23.04438,2.84025 c 2.63804,-0.33791 5.2994,-0.71825 5.91413,-0.84514 0.93495,-0.19301 1.1177,-0.0925 1.1177,0.61441 0,0.79336 0.22437,0.84518 3.65792,0.84518 h 3.65791 l -0.0327,-23.26841 c -0.0362,-25.79352 -0.0787,-26.29348 -2.36439,-27.82805 -1.34774,-0.90489 -1.63029,-0.92725 -11.72519,-0.92725 -14.41541,0 -14.32816,-0.0579 -14.32816,9.51104 v 5.52707 h 3.4547 3.4547 v -4.47079 -4.47079 h 7.11261 7.11262 v 7.51905 7.51906 l -8.0271,0.01 c -9.24837,0.011 -10.83823,0.26861 -12.39627,2.0073 l -1.1177,1.24731 v 12.4305 12.43049 l 1.38188,1.38188 c 1.35602,1.35603 1.4469,1.38188 4.85641,1.38188 1.91099,0 5.63292,-0.27649 8.27095,-0.61444 z m -7.60032,-15.13491 4.8e-4,-9.04319 h 7.31583 7.31584 v 8.92386 8.92385 l -7.31632,0.11933 -7.31632,0.11933 4.1e-4,-9.04318 z m 98.35781,-25.91025 v -41.65961 h -3.86114 -3.86113 v 41.65961 41.65961 h 3.86113 3.86114 z m 43.08213,40.62971 c 2.87378,-1.67013 2.84371,-1.43269 2.8444,-22.44173 v -18.79763 h -8.12871 -8.1287 v 3.4547 3.4547 h 4.26757 4.26757 v 14.22523 14.22523 h -8.94158 -8.94157 v -34.75021 -34.75021 h 8.94157 8.94158 v 9.34801 9.34801 h 3.88503 3.88503 l -0.1255,-11.07536 c -0.11429,-10.08492 -0.19452,-11.17717 -0.89713,-12.21382 -1.52848,-2.25519 -1.93991,-2.31636 -15.5672,-2.31473 -11.83877,0 -12.59108,0.0461 -13.86346,0.82177 -2.62285,1.59912 -2.51576,-0.13071 -2.51576,40.63312 0,39.49835 -0.0434,38.60256 1.95943,40.38661 1.42671,1.27084 3.08602,1.41846 15.11085,1.34437 10.83857,-0.0668 11.6749,-0.12454 13.00593,-0.89806 z m 22.45291,-28.50022 0.10425,-29.53012 10.36409,29.52374 10.3641,29.52378 2.74344,0.007 2.74344,0.006 v -41.6596 -41.65961 h -3.65524 -3.65523 l -0.10429,28.99691 -0.10429,28.99692 -10.16088,-28.99183 -10.16088,-28.99184 -2.94666,-0.005 -2.94666,-0.005 v 41.65961 41.65961 h 3.65528 3.65523 l 0.1043,-29.53012 z m 62.41219,28.78732 c 0.51491,-0.2906 1.29157,-1.11111 1.72585,-1.82335 0.70354,-1.15387 0.78974,-2.08298 0.79112,-8.52538 0,-6.40095 -0.0899,-7.40342 -0.7956,-8.73836 -0.53503,-1.01219 -3.86682,-4.04675 -10.13438,-9.23023 l -9.33728,-7.72226 -0.0264,-4.36918 -0.0264,-4.36918 h 6.70618 6.70618 v 5.08044 5.08044 h 3.4547 3.4547 v -6.44285 c 0,-6.03357 -0.0589,-6.53024 -0.92667,-7.81795 -1.5584,-2.31253 -1.97499,-2.39049 -12.81072,-2.39707 -13.85562,-0.009 -13.49377,-0.28617 -13.49377,10.35812 0,5.12779 0.14274,7.02259 0.59494,7.897 0.32718,0.63278 4.89957,4.78033 10.16088,9.21685 l 9.56594,8.06636 v 4.98822 4.98822 h -6.70618 -6.70618 v -5.89331 -5.89331 h -3.69084 -3.69084 l 0.14729,7.21422 c 0.18261,8.94544 0.57397,9.90085 4.38934,10.71575 2.4921,0.53227 19.58839,0.215 20.64833,-0.38319 z m -148.269,-57.60752 c 0,-1.58721 1.1097,-20.46336 1.36633,-23.24155 l 0.15957,-1.72735 h -4.01443 c -3.552,0 -4.01452,0.0819 -4.01524,0.71126 -0.002,1.47 1.23778,21.52766 1.45669,23.57325 l 0.22835,2.13378 h 2.40937 2.40936 z M 178.50608,509.69137 c -24.92555,-38.83419 -38.68733,-79.99523 -42.36293,-126.70618 -0.61542,-7.821 -0.61353,-29.90723 0.003,-37.79848 4.70407,-60.18675 27.2499,-113.91231 66.51831,-158.50973 43.43712,-49.33186 103.75547,-81.00516 169.05461,-88.770927 11.74784,-1.39713 18.62421,-1.78097 31.90516,-1.78097 17.15848,0 29.70741,1.0438 45.92718,3.82015 100.6102,17.221507 183.48202,91.570337 211.74313,189.966287 5.04394,17.56135 8.28758,35.8082 9.78984,55.07198 0.63384,8.12744 0.64091,30.15835 0.0122,38.00169 -3.77002,47.03553 -17.52114,88.1745 -42.35283,126.70618 l -4.38731,6.80779 h 15.97453 15.97449 l 4.08821,-7.21422 c 19.14761,-33.78859 31.2352,-70.04505 36.0517,-108.13616 3.44795,-27.26784 3.08684,-57.26995 -1.00194,-83.24167 C 688.99277,276.93237 674.52425,238.61508 652.41746,203.96034 632.054,172.03855 604.30207,143.02498 573.14747,121.08668 533.70456,93.311963 488.16321,75.628651 440.60984,69.623445 427.1298,67.921136 417.5057,67.33847 402.81136,67.335036 c -14.71187,-0.0033 -24.2931,0.575979 -37.79848,2.285848 -81.293,10.29222 -154.6573,54.151516 -202.94048,121.323666 -28.79932,40.06597 -47.17323,87.11708 -53.09078,135.95258 -2.13598,17.62742 -2.73022,41.69174 -1.44023,58.32345 3.4586,44.59168 15.94429,85.69329 37.68779,124.06436 l 4.08804,7.21422 h 16.77908 16.77908 z m 109.39774,-2.43857 c -0.0683,-7.03015 -0.25406,-9.92645 -0.77498,-12.08348 -1.22563,-5.0752 0.14308,-12.31938 4.34024,-22.9716 2.49764,-6.33888 7.86639,-15.5494 16.04816,-27.53176 1.44493,-2.11614 2.61291,-3.96583 2.59551,-4.11048 -0.0174,-0.14461 -1.31661,-1.33912 -2.88715,-2.65447 -7.14392,-5.98309 -12.21804,-15.10269 -14.38198,-25.84839 -0.89046,-4.42185 -0.61287,-10.88071 0.61963,-14.41699 1.54309,-4.4275 5.70215,-11.38907 9.24799,-15.47962 1.84363,-2.12685 3.53704,-4.21265 3.76313,-4.63511 0.22609,-0.42245 0.5929,-4.02966 0.81511,-8.016 1.0615,-19.04184 6.31234,-34.24883 16.67684,-48.29786 3.58098,-4.85402 4.95961,-6.42706 13.15585,-15.01115 3.82775,-4.00888 6.92671,-7.57535 6.88657,-7.92549 -0.0401,-0.35013 -0.72606,-2.43714 -1.52427,-4.6378 -3.09759,-8.53999 -4.38016,-18.60905 -4.40855,-34.61015 -0.0278,-15.65018 1.11962,-23.94097 5.37168,-38.81457 4.9336,-17.2576 10.19479,-27.14875 16.61782,-31.24182 3.69232,-2.35294 6.53805,-1.9828 8.04278,1.0461 0.67232,1.35333 0.79724,2.90979 1.0208,12.71901 0.38834,17.03992 1.62829,23.51434 6.65041,34.72543 1.46498,3.27032 3.1056,7.12035 3.64583,8.55561 1.74221,4.62862 3.49002,12.41347 3.8335,17.07459 0.39972,5.42452 -0.0884,16.46067 -0.89437,20.22015 -0.32347,1.50889 -0.50699,2.74344 -0.40782,2.74344 0.0992,0 0.51689,-0.18013 0.92827,-0.4003 0.98974,-0.52969 8.40744,-1.63188 10.98254,-1.63188 1.11917,0 2.03485,-0.0951 2.03485,-0.21129 0,-0.19396 -1.70086,-2.84649 -2.62745,-4.09758 -0.88968,-1.20125 1.09025,-1.17024 5.41716,0.0849 0.83522,0.24227 0.92589,0.16881 0.69388,-0.56218 -0.30142,-0.94968 0.5071,-6.18755 0.95511,-6.18755 0.16,0 1.48053,1.25145 2.93452,2.781 2.53359,2.66523 5.91257,5.24682 8.83094,6.74693 0.7531,0.38711 4.38878,1.1548 8.07933,1.70599 3.69051,0.55117 8.10399,1.44737 9.80769,1.99154 4.7861,1.52869 4.61901,1.60044 6.8996,-2.96297 2.9365,-5.87594 4.82374,-10.95133 6.2122,-16.70656 2.90333,-12.03473 8.32042,-29.15318 11.40104,-36.02841 3.42731,-7.64886 6.37091,-12.3656 11.92148,-19.10246 5.51232,-6.69045 13.70751,-15.34651 15.68966,-16.57199 1.63659,-1.0118 1.98401,-1.08927 2.93739,-0.65488 2.29623,1.04623 4.22469,7.58902 5.19733,17.63331 0.81571,8.42342 0.6922,38.12234 -0.18469,44.40998 -1.80274,12.92636 -5.30008,25.25136 -9.6065,33.85441 -2.38017,4.75491 -6.15514,10.69277 -10.66462,16.77504 -1.2988,1.75179 -2.35675,3.39785 -2.35098,3.65791 0.006,0.26007 0.91379,1.08554 2.01787,1.83438 2.43463,1.65133 8.81566,7.96207 11.15762,11.03475 5.70432,7.48417 10.31923,18.24855 12.5732,29.32728 1.66207,8.16958 2.03526,12.74003 1.63748,20.0546 -0.19452,3.57663 -0.35705,7.97362 -0.3612,9.7711 l -0.007,3.26813 2.43861,3.97057 c 5.06471,8.24633 7.70195,14.01112 8.73417,19.09201 1.32466,6.52048 -0.25426,15.84516 -3.76273,22.22164 -0.74285,1.3501 -3.10753,4.10232 -5.97078,6.94931 l -4.74083,4.71392 0.96756,1.38261 c 4.56313,6.52069 8.73682,16.06155 10.22876,23.38247 1.81652,8.91397 1.89626,19.30433 0.2161,28.16144 -0.49845,2.62773 -5.12889,16.98847 -6.46545,20.05173 -0.29564,0.67765 2.60907,0.70756 59.16909,0.60965 l 59.47996,-0.10295 5.40506,-8.10566 c 24.67018,-36.99637 38.82786,-77.76756 42.84202,-123.37613 0.68541,-7.78758 0.69061,-32.89633 0.009,-41.04996 -5.25859,-62.8456 -31.39526,-119.47949 -75.49169,-163.57592 -44.73417,-44.73414 -102.82499,-71.18884 -166.01449,-75.6034 -75.08898,-5.245857 -148.41665,22.22508 -201.78788,75.59631 -44.07665,44.07664 -70.22687,100.74766 -75.48357,163.58296 -0.68015,8.13008 -0.67272,33.24658 0.0121,41.04996 4.15566,47.34966 19.3976,89.84624 45.88211,127.92549 l 2.61479,3.75952 47.62422,4e-5 47.62421,4e-5 -0.0898,-9.24644 z M 552.12047,221.43473 c -4.18364,-1.09681 -6.8955,-2.61584 -9.72128,-5.44535 -4.30187,-4.30754 -6.32324,-10.11469 -5.44164,-15.63326 1.33896,-8.38149 8.09765,-16.89738 16.9449,-21.35033 7.04043,-3.54355 12.6965,-3.31931 19.06603,0.75585 5.40279,3.45664 8.55925,10.11851 7.4157,15.6511 -0.3603,1.74327 -2.32883,6.47079 -3.0164,7.24414 -0.21541,0.2423 -4.25981,-1.97064 -4.25981,-2.33081 0,-0.19758 0.45545,-1.3376 1.01211,-2.53338 2.03132,-4.36348 0.92943,-9.13441 -2.88516,-12.49215 -2.58542,-2.27576 -4.40962,-3.03694 -7.71756,-3.22027 -2.37716,-0.13175 -3.3257,0.0184 -5.39319,0.85345 -5.54617,2.2402 -11.49553,7.79976 -14.2041,13.27341 -1.37607,2.78085 -1.49751,3.31002 -1.49227,6.50296 0.005,2.97358 0.16266,3.77478 1.09197,5.54525 1.89765,3.6153 6.60531,7.12462 10.37341,7.73284 0.27349,0.0441 1.18797,0.1957 2.03217,0.33677 1.488,0.24868 1.6279,0.16225 4.58313,-2.83143 l 3.04827,-3.08794 -3.9762,-3.7356 c -2.18691,-2.05458 -3.97014,-3.92614 -3.96274,-4.15902 0.007,-0.23288 0.83294,-1.22769 1.83456,-2.2107 l 1.82112,-1.78728 5.39311,5.23626 c 2.9662,2.87994 5.61527,5.50123 5.88681,5.82509 0.40859,0.48729 -0.49451,1.63027 -5.23623,6.62728 l -5.73001,6.03845 -2.28278,-0.0224 c -1.25552,-0.0123 -3.5883,-0.36463 -5.18392,-0.78295 z M 266.95816,188.57236 c -7.09228,-10.20758 -12.93324,-18.74212 -12.97991,-18.96566 -0.0974,-0.46667 11.96072,-9.02373 14.70973,-10.43875 2.35858,-1.21405 6.78907,-1.29581 8.94158,-0.16501 2.54093,1.33487 4.67237,3.35248 5.89323,5.5785 0.99615,1.81634 1.19769,2.65504 1.20755,5.02526 0.007,1.56477 -0.12587,3.2194 -0.29417,3.67694 -0.28754,0.78171 -0.14667,0.83463 2.3348,0.87716 3.42605,0.0587 5.67355,1.14603 8.2929,4.01201 2.59024,2.83414 3.81173,5.91668 3.85304,9.72347 0.0561,5.1675 -1.74425,7.35524 -11.73612,14.26165 -3.57663,2.47218 -6.6885,4.6026 -6.91527,4.73426 -0.22677,0.13167 -6.21508,-8.11226 -13.30736,-18.31983 z m 20.01941,6.82291 c 5.39257,-3.81962 6.50296,-5.16715 6.50296,-7.89176 0,-1.9769 -0.8475,-3.86735 -2.60672,-5.8146 -1.87462,-2.07498 -3.36927,-2.68504 -5.96684,-2.43545 -1.77071,0.17015 -2.80318,0.70332 -7.32618,3.78328 -2.89574,1.97188 -5.189,3.7805 -5.09613,4.01917 0.0929,0.23866 2.03971,3.1398 4.32631,6.44697 l 4.15745,6.01304 1.07401,-0.69288 c 0.5907,-0.38109 2.81152,-1.92358 4.93514,-3.42777 z m -13.34329,-16.52534 c 2.45967,-1.72317 4.90624,-3.64896 5.43683,-4.27953 1.94505,-2.31155 1.65739,-5.5694 -0.73204,-8.29081 -2.3793,-2.70987 -4.74684,-3.23543 -7.73671,-1.71742 -3.13531,1.59185 -9.29,6.11143 -9.07729,6.66574 0.2632,0.68591 7.26129,10.75506 7.47479,10.75506 0.0893,0 2.17476,-1.40987 4.63442,-3.13304 z m 243.38563,18.5076 c -4.67449,-0.8358 -10.63503,-5.32984 -12.57515,-9.48125 -1.37952,-2.95182 -1.56441,-6.7243 -0.50101,-10.22245 0.46541,-1.53091 1.08311,-3.10118 1.3727,-3.48949 0.49406,-0.66253 0.65984,-0.64185 2.6919,0.33576 1.7052,0.82037 2.10232,1.18634 1.86858,1.7221 -0.16326,0.37418 -0.56295,1.70892 -0.88822,2.96607 -0.5265,2.03487 -0.52056,2.52946 0.0541,4.50622 1.74722,6.01033 9.53001,10.16254 14.39463,7.67974 1.86261,-0.95062 2.71796,-1.87391 3.52465,-3.8046 1.39891,-3.34814 0.53743,-5.3073 -5.04801,-11.47997 -2.22499,-2.45893 -4.64612,-5.56816 -5.38031,-6.9094 -1.15293,-2.1063 -1.33388,-2.82631 -1.32782,-5.28366 0.008,-3.35933 0.94204,-5.73874 3.25831,-8.30255 3.55224,-3.9319 7.8835,-4.98143 13.56949,-3.28808 2.61131,0.77769 3.37853,1.24102 5.63055,3.40046 3.67962,3.52836 4.72006,5.69329 4.71733,9.81591 0,2.51397 -0.2161,3.73548 -0.94537,5.38527 -0.51877,1.17358 -1.0182,2.13379 -1.10989,2.13379 -0.35701,0 -4.204,-2.05744 -4.204,-2.24838 0,-0.11138 0.30385,-1.29533 0.67517,-2.631 0.85453,-3.07353 0.35953,-5.02453 -1.89554,-7.47098 -2.60955,-2.83104 -6.41045,-4.31967 -9.53346,-3.73379 -1.88444,0.35353 -4.12426,2.60032 -4.6912,4.70577 -0.65473,2.43141 0.35364,4.24517 5.64791,10.15907 5.39668,6.0283 6.65338,8.31979 6.6889,12.19658 0.0195,2.14411 -0.21581,3.1603 -1.23869,5.34611 -2.83033,6.04825 -8.48868,9.11326 -14.75555,7.99275 z M 314.40262,183.32388 c -0.34644,-0.83827 -4.40285,-10.34909 -9.01425,-21.13515 -4.61139,-10.78606 -8.30838,-19.6734 -8.21553,-19.74963 0.58857,-0.48321 16.13205,-6.83653 17.45032,-7.13272 8.7973,-1.97663 17.70339,5.78796 22.10827,19.27465 3.49092,10.68832 1.44345,18.99753 -5.71907,23.2096 -1.36611,0.80337 -15.41884,7.05739 -15.8579,7.05739 -0.0671,0 -0.4054,-0.68586 -0.75184,-1.52414 z m 9.36435,-8.30226 c 7.90111,-3.47761 9.42073,-5.53516 9.02745,-12.22309 -0.53317,-9.06673 -6.34995,-19.18324 -12.31274,-21.4142 -2.07067,-0.77474 -2.57841,-0.81965 -4.60494,-0.40739 -2.55474,0.51973 -11.92536,4.39124 -11.74317,4.85173 0.0646,0.16333 3.12943,7.36311 6.81067,15.99951 5.89184,13.82256 6.78524,15.67332 7.46213,15.45848 0.42292,-0.13423 2.83519,-1.1535 5.3606,-2.26504 z m 165.42196,5.92612 c -0.88879,-0.32533 -1.74881,-0.72438 -1.91118,-0.88677 -0.16241,-0.1624 -1.77466,-9.15755 -3.5828,-19.98924 -1.80815,-10.83169 -3.34688,-19.7533 -3.41938,-19.82581 -0.194,-0.19399 -0.53682,0.71917 -6.49285,17.29414 -2.99705,8.34049 -5.55438,15.26972 -5.68294,15.3983 -0.45834,0.45831 -4.53021,-1.32964 -4.40478,-1.93413 0.1744,-0.84068 15.1324,-42.39216 15.33273,-42.59248 0.17294,-0.17295 5.07093,1.5642 5.07093,1.79851 0,0.41069 6.58795,39.81995 6.67041,39.90248 0.0547,0.0548 2.72954,-7.2205 5.94408,-16.1673 3.21449,-8.94679 5.95476,-16.44523 6.08945,-16.66319 0.39591,-0.64054 4.68787,0.99897 4.55728,1.74085 -0.0599,0.34002 -3.48916,9.99648 -7.62066,21.4588 -4.13154,11.46232 -7.51186,20.90225 -7.51186,20.97761 0,0.30174 -1.51161,0.0471 -3.03843,-0.51177 z M 349.0451,146.78678 c -2.16372,-12.45549 -3.88611,-22.69428 -3.82752,-22.75286 0.17411,-0.17411 25.85832,-4.62197 26.68961,-4.62197 0.50837,0 0.8377,0.37361 0.98524,1.11769 0.58825,2.96685 0.72244,4.16596 0.46621,4.16596 -0.36312,0 -21.9348,3.74693 -22.04385,3.82894 -0.1345,0.10116 2.24834,13.307 2.43472,13.49339 0.0938,0.0938 4.35822,-0.55446 9.47657,-1.44048 5.11836,-0.88602 9.7599,-1.66695 10.31453,-1.73539 0.93976,-0.11597 1.0398,0.0492 1.46919,2.42575 0.25342,1.40261 0.34097,2.62423 0.19456,2.71471 -0.14641,0.0905 -4.64835,0.9196 -10.00432,1.84248 -5.35597,0.92288 -9.93607,1.74132 -10.17799,1.81877 -0.29535,0.0945 -0.0157,2.55855 0.85108,7.4999 0.71002,4.0475 1.37301,7.44117 1.47333,7.54148 0.10031,0.10031 5.29564,-0.70905 11.54519,-1.79858 6.24954,-1.08953 11.4152,-1.92896 11.47924,-1.86539 0.23956,0.23782 1.0346,5.09917 0.86214,5.27164 -0.0989,0.0988 -6.02925,1.20117 -13.17865,2.44958 -7.1494,1.24842 -13.46609,2.36455 -14.03707,2.48029 l -1.03817,0.21044 z m 91.57686,18.70091 c -7.48207,-1.44716 -13.64802,-2.67549 -13.70216,-2.72963 -0.0541,-0.0541 1.81267,-10.05778 4.14849,-22.23032 2.33582,-12.17254 4.24944,-22.26905 4.25253,-22.43671 0.004,-0.16765 0.35039,-0.30483 0.77174,-0.30483 0.98292,0 25.98954,4.78658 26.43056,5.05914 0.18245,0.11277 0.12092,1.26107 -0.13676,2.55178 -0.36616,1.83414 -0.64278,2.36907 -1.26633,2.44892 -0.43879,0.0562 -5.37023,-0.78613 -10.95871,-1.87184 -5.58849,-1.0857 -10.28212,-1.86326 -10.43027,-1.72791 -0.28552,0.26085 -2.83562,13.12756 -2.64045,13.32271 0.063,0.063 4.58427,0.96363 10.04728,2.00147 5.46306,1.03785 10.09716,2.0384 10.29798,2.22345 0.31303,0.28846 -0.29235,4.70866 -0.70086,5.11717 -0.0729,0.0729 -4.32524,-0.67143 -9.44966,-1.65404 -5.12438,-0.98262 -9.77432,-1.85004 -10.33317,-1.92761 -1.00711,-0.13979 -1.02897,-0.0763 -2.4719,7.1748 -0.80068,4.02371 -1.34936,7.43883 -1.2193,7.58916 0.1301,0.15033 5.32702,1.23934 11.54877,2.42001 l 11.31227,2.14668 -0.26605,1.84756 c -0.41761,2.89963 -0.66708,3.679 -1.16631,3.64388 -0.2552,-0.018 -6.58567,-1.21669 -14.06769,-2.66384 z m -43.90688,-23.31537 v -2.84505 h 7.31584 7.31583 v 2.84505 2.84504 h -7.31583 -7.31584 z m 62.6689,313.76092 c 3.8691,-0.45098 7.35481,-0.92053 7.74601,-1.04348 0.47451,-0.14912 0.71126,-0.63908 0.71126,-1.47207 v -1.24853 l -2.13379,0.26037 c -17.91119,2.1856 -26.78705,1.73369 -46.52228,-2.36863 -3.84805,-0.7999 -8.5119,-1.8848 -10.3641,-2.41089 -4.89256,-1.38968 -4.89365,-1.38989 -11.09641,-1.89188 -6.10468,-0.4941 -8.01066,-0.35888 -26.20857,1.85957 -10.52205,1.28271 -15.67584,1.48568 -25.18475,0.99182 -9.40303,-0.48833 -13.38261,-0.9563 -17.45411,-2.05241 -3.30039,-0.88851 -3.83399,-0.7261 -3.62492,1.10339 0.12304,1.07668 0.34812,1.22085 2.90252,1.85887 6.7443,1.68451 30.00282,2.96332 36.85829,2.02652 4.29722,-0.58717 12.14164,-1.5327 19.46477,-2.34614 9.12888,-1.01402 16.01847,-0.65205 23.00772,1.20882 9.84451,2.62102 23.52422,5.1603 32.71803,6.07328 4.35016,0.43196 12.85433,0.1887 19.18033,-0.54861 z m -19.70764,-27.07728 c 1.20191,-0.56877 2.90427,-1.87899 3.94434,-3.03583 3.4045,-3.78659 4.95554,-8.52132 4.63055,-14.13529 -0.16456,-2.84249 -0.4257,-3.76818 -1.90541,-6.75442 -2.49844,-5.04204 -7.37505,-9.73348 -8.6906,-8.36062 -0.3983,0.41562 -0.3347,0.61624 0.31304,0.98756 2.98852,1.71304 7.08376,7.4934 8.11566,11.45517 0.77064,2.95864 0.77296,4.49225 0.0122,8.08314 -1.24784,5.89039 -4.82971,9.78684 -10.14958,11.04102 -3.1893,0.75186 -3.68287,1.16122 -2.14427,1.77827 1.26206,0.50618 3.36926,0.12628 5.87404,-1.059 z m -89.78497,-2.2406 c 0.0936,-0.49122 -0.44971,-0.86306 -2.02571,-1.38655 -2.69394,-0.89477 -5.88287,-4.032 -7.43632,-7.31572 -1.34315,-2.83919 -1.77123,-7.19699 -1.01994,-10.38275 1.50398,-6.37733 7.03483,-12.69911 11.88655,-13.58636 0.95995,-0.17554 1.52413,-0.50438 1.52413,-0.88838 0,-1.45175 -5.78603,0.7352 -8.8232,3.33492 -2.38178,2.03872 -4.85933,5.93517 -5.85209,9.2036 -1.30954,4.31139 -1.00951,9.43361 0.76334,13.0319 1.72389,3.49892 4.44948,6.49878 7.11318,7.829 2.31256,1.15485 3.66992,1.2111 3.87006,0.16034 z m 49.8047,-2.14504 c 0.14057,-0.36628 -0.74716,-1.43256 -2.40285,-2.88618 -1.44417,-1.26792 -2.82152,-2.67109 -3.06078,-3.11813 -0.28485,-0.53227 -0.33593,-2.26669 -0.14797,-5.02427 l 0.28705,-4.21144 2.08626,-0.61742 c 1.21667,-0.36006 4.28859,-2.10277 7.36992,-4.181 4.27673,-2.88443 5.30721,-3.76664 5.40725,-4.62934 0.28355,-2.44507 -1.32656,-1.81863 -8.73359,3.39792 -1.50387,1.05913 -3.60738,2.21569 -4.67449,2.57014 -1.91859,0.63725 -1.96402,0.63164 -4.08229,-0.50317 -1.17816,-0.63119 -3.96003,-2.93084 -6.18192,-5.11035 -2.2219,-2.17951 -4.28521,-3.96275 -4.58516,-3.96275 -0.79285,0 -1.09956,1.12534 -0.60345,2.21418 1.11173,2.44 9.46341,9.97888 11.05473,9.97888 0.3785,0 0.43452,0.68224 0.22529,2.74344 -0.59187,5.83052 -1.36975,7.02665 -6.1009,9.38126 -2.46977,1.22914 -3.4502,2.36504 -2.86235,3.31622 0.13939,0.22553 0.4358,0.41005 0.65868,0.41005 0.75684,0 5.43313,-2.47864 6.93306,-3.67482 l 1.49296,-1.19061 1.06213,1.26226 c 2.8529,3.39049 6.29126,5.31317 6.85842,3.83513 z m 56.55889,-34.06769 c 3.06602,-3.14814 5.58125,-7.38185 6.55255,-11.02964 0.77056,-2.89384 0.69777,-7.35747 -0.2096,-12.84843 -1.26653,-7.66467 -2.84025,-10.13871 -5.69656,-8.95559 -3.56415,1.47631 -6.85843,10.00987 -8.39167,21.73783 -1.23885,9.47634 -0.12412,14.04249 3.42816,14.04249 1.26182,0 1.8151,-0.37766 4.31712,-2.94666 z m -111.96264,-7.51905 c 1.20097,-1.52666 3.72388,-6.93325 5.07334,-10.87214 2.10662,-6.14894 1.71411,-12.03995 -1.29984,-19.50889 -1.06778,-2.6461 -1.24197,-2.85409 -2.49102,-2.97439 -2.80245,-0.2699 -4.30386,2.39492 -7.05714,12.52562 -0.81085,2.98351 -0.93531,4.36935 -0.91252,10.16088 0.0273,6.9554 0.46243,9.26835 2.07949,11.05518 1.06959,1.18188 3.53679,0.97506 4.60769,-0.38626 z M 462.0717,299.17356 c 2.39028,-1.13427 9.56395,-8.35357 11.86461,-11.94013 2.64049,-4.11626 3.45718,-6.05113 4.88088,-11.56327 3.18617,-12.33619 3.65504,-17.61316 4.06102,-45.70783 0.189,-13.07706 0.24053,-24.56217 0.11458,-25.52248 -0.16465,-1.25521 -0.39928,-1.71221 -0.8347,-1.62575 -0.33307,0.0662 -4.61458,6.0644 -9.5144,13.32943 -12.94935,19.20017 -15.92873,25.71923 -18.20367,39.83065 -2.13252,13.22784 -1.80404,24.61903 1.05799,36.68922 1.03714,4.3741 1.79474,5.81576 2.8444,5.41296 0.34502,-0.13239 0.55726,0.0651 0.55726,0.51854 0,1.46947 0.93525,1.64009 3.17203,0.57866 z m -3.91003,-7.96673 c -1.77933,-8.26943 -2.08111,-11.04348 -2.08656,-19.17846 -0.005,-7.17603 0.56466,-12.7652 2.04705,-20.09201 2.04775,-10.12117 5.00554,-16.48311 13.6696,-29.40201 3.48168,-5.1915 6.9589,-10.44501 7.72714,-11.67448 l 1.3968,-2.23539 -0.25378,2.23539 c -0.13957,1.22947 -0.41326,11.47164 -0.60819,22.76037 -0.35356,20.47514 -0.64879,24.92616 -2.23698,33.72453 -1.63053,9.03311 -3.55326,14.49243 -6.79031,19.28051 -1.89078,2.79672 -7.87635,8.69687 -10.07829,9.93443 l -1.45837,0.81964 z m -105.18559,5.18414 c 0.13363,-0.34823 -0.10004,-1.30844 -0.51928,-2.13378 -3.68685,-7.25822 -5.6642,-22.51685 -5.19808,-40.11197 0.60062,-22.67229 2.48887,-33.65685 7.64812,-44.49163 2.3888,-5.01665 4.66273,-8.95507 5.16983,-8.9541 0.42399,8.2e-4 2.49263,15.92535 2.93017,22.55666 0.22124,3.35309 0.57877,7.65114 0.7945,9.55122 0.57217,5.0393 0.48579,13.26461 -0.20278,19.30817 -0.61888,5.43195 -2.50142,14.62168 -5.91091,28.85441 -2.94441,12.29127 -3.03466,12.76601 -2.52399,13.27668 1.07679,1.0768 1.6274,-0.16769 3.47422,-7.85254 2.82246,-11.74454 5.88332,-25.81798 6.59142,-30.30652 1.01878,-6.45794 1.20461,-17.48048 0.44043,-26.12524 -0.36557,-4.13548 -0.76417,-8.70788 -0.88578,-10.16088 -0.12161,-1.45301 -0.57192,-4.65369 -1.00069,-7.11262 -1.0252,-5.87944 -2.07255,-13.08883 -2.11418,-14.55285 -0.13873,-4.87951 -6.46058,3.49601 -10.94391,14.49907 -3.87521,9.51061 -5.58778,20.84594 -6.27146,41.51017 -0.59296,17.92202 1.98603,35.2245 6.25491,41.96444 0.66744,1.05378 1.91179,1.20817 2.26746,0.28131 z"
       id="path90" />
  </g>
</svg>
